<svg version="1.1" id="Layer_1" xmlns="http://www.w3.org/2000/svg" xmlns:xlink="http://www.w3.org/1999/xlink" x="0px" y="0px"
	 width="100%" viewBox="0 0 1024 1024" enable-background="new 0 0 1024 1024" xml:space="preserve">
<path fill="#1d3557" opacity="1.000000" stroke="none" 
	d="
M334.202057,660.024048 
	C307.389618,652.931702 282.309113,642.697388 259.148468,628.165283 
	C201.055756,591.715454 160.695267,541.300720 139.810089,475.669220 
	C131.158920,448.482941 126.351257,420.517944 127.066185,392.131958 
	C129.441544,297.818268 168.048141,221.921432 244.871811,166.321365 
	C280.370758,140.629517 320.401398,125.677414 363.521851,119.269844 
	C387.265472,115.741608 411.200439,115.643372 435.180542,118.449425 
	C483.386810,124.090324 527.230286,140.853683 566.327332,169.479126 
	C608.288025,200.201172 639.391235,239.615891 659.121765,287.915131 
	C675.343140,327.624115 681.929016,368.970551 678.977112,411.562347 
	C675.597717,460.321838 660.422852,505.383850 632.939209,546.056763 
	C629.768494,550.749207 626.559875,555.423462 623.170654,559.958069 
	C621.133911,562.683105 621.029053,564.684326 623.652405,567.243652 
	C631.044067,574.454956 638.245972,581.866028 645.365479,589.347900 
	C647.478882,591.568909 649.692200,592.110840 652.536377,591.528931 
	C680.328796,585.842651 703.794434,593.972656 723.550232,613.861816 
	C780.970459,671.669678 838.438843,729.429810 895.789185,787.306946 
	C933.559326,825.423950 917.058044,891.027222 865.561768,906.306580 
	C840.341248,913.789612 816.928589,908.863281 797.024902,891.222900 
	C778.688843,874.971802 762.070801,856.922302 744.743286,839.620361 
	C702.766907,797.705811 660.993469,755.588074 619.091248,713.599060 
	C604.194153,698.671082 597.027466,680.603027 596.858154,659.671082 
	C596.809448,653.653259 597.999756,647.729919 599.772705,642.006226 
	C600.718811,638.951965 599.823059,637.021301 597.734863,634.954102 
	C590.985840,628.273010 584.200134,621.614197 577.769775,614.632446 
	C574.577515,611.166504 572.299133,611.310120 568.609863,614.059387 
	C536.502014,637.986389 500.871582,654.364136 461.684418,662.712158 
	C426.975677,670.106262 392.115662,671.177185 357.095398,664.595764 
	C349.577637,663.182922 342.025208,661.982727 334.202057,660.024048 
M511.176971,206.371368 
	C465.920441,180.486267 417.381500,171.924957 366.215485,180.774368 
	C316.416443,189.387390 274.261322,212.794998 241.315262,251.335938 
	C193.962204,306.730499 178.677032,370.680145 193.977966,441.596466 
	C202.305237,480.191406 220.748795,513.935791 248.680664,542.079163 
	C298.016296,591.788391 357.863464,613.282227 427.393707,606.392029 
	C463.984955,602.765930 497.370483,589.498596 527.591003,568.285950 
	C599.912720,517.521301 634.149475,425.559174 612.056030,340.126343 
	C597.007996,281.937042 563.266602,237.643036 511.176971,206.371368 
z"/>
<path fill="#1d3557" opacity="1.000000" stroke="none" 
	d="
M456.865112,739.613770 
	C456.357391,743.355164 454.449554,744.795715 451.231476,743.994629 
	C447.431244,743.048645 449.474091,740.178162 449.834045,738.251465 
	C452.031525,726.489929 454.583282,714.793457 456.690826,703.016907 
	C457.356720,699.296143 459.252350,698.633179 462.523376,698.592773 
	C466.178009,698.547729 466.912415,700.584106 467.333191,703.539551 
	C468.422333,711.190308 469.690521,718.815613 471.122803,727.953918 
	C476.051239,718.992126 480.229950,711.472656 484.331024,703.911133 
	C487.543854,697.987244 487.680969,697.884705 495.274078,699.268066 
	C496.162354,703.063110 494.565491,706.711548 493.931244,710.353333 
	C492.219879,720.179626 490.015656,729.919067 488.128357,739.716309 
	C487.527710,742.834412 486.124176,744.601929 482.747375,744.065674 
	C478.793549,743.437927 480.480133,740.551880 480.850830,738.590881 
	C482.142975,731.755127 484.146423,725.052185 483.972168,717.700500 
	C481.170624,722.810608 478.370453,727.921509 475.566620,733.030334 
	C474.685577,734.635620 473.816132,736.247864 472.901825,737.834167 
	C471.937256,739.507629 470.433533,739.911194 468.616943,739.596497 
	C466.616821,739.250000 466.011566,737.895813 465.715454,736.078308 
	C464.710510,729.910950 463.603546,723.760132 461.320862,717.537903 
	C459.878021,724.763000 458.435211,731.988159 456.865112,739.613770 
z"/>
<path fill="#1d3557" opacity="1.000000" stroke="none" 
	d="
M526.925110,776.388977 
	C528.954956,783.193359 527.770996,785.845703 520.046509,792.213562 
	C524.413635,794.396484 526.580627,797.839722 525.826965,802.705750 
	C525.000244,808.043640 522.219604,812.002686 517.035400,813.871826 
	C509.608063,816.549500 501.879791,815.120789 494.273163,815.243286 
	C491.931335,815.281006 491.659027,813.488464 492.014526,811.710632 
	C494.586029,798.849792 497.213470,786.000061 499.823029,773.146790 
	C500.110260,771.732178 500.839874,770.465454 502.301849,770.359680 
	C509.423431,769.844482 516.604858,769.075012 523.324158,772.497986 
	C524.841125,773.270813 525.913086,774.563232 526.925110,776.388977 
M502.362183,798.212830 
	C501.815430,801.753357 500.404755,805.178589 500.765930,809.042236 
	C504.819458,810.162415 508.678131,809.902039 512.512512,808.679932 
	C516.126099,807.528137 518.608582,805.415649 518.698059,801.292175 
	C518.777893,797.610046 516.568359,795.741699 513.332031,795.275024 
	C509.547089,794.729248 505.130768,792.038452 502.362183,798.212830 
M505.686981,788.455139 
	C507.988739,788.507629 510.329010,788.851074 512.584351,788.552734 
	C517.429565,787.911743 520.437439,784.944397 519.912842,781.402161 
	C519.194885,776.553711 515.331116,776.554260 511.607910,776.281860 
	C508.283997,776.038818 506.235474,776.959778 505.916962,780.674438 
	C505.708435,783.106079 504.634094,785.454102 505.686981,788.455139 
z"/>
<path fill="#1d3557" opacity="1.000000" stroke="none" 
	d="
M724.538330,840.632263 
	C726.162842,836.274536 728.947449,837.818237 731.761108,838.391907 
	C731.822144,843.470642 730.310974,848.048401 729.373474,852.715698 
	C727.348511,862.797485 725.328674,872.880310 723.310242,882.963379 
	C722.948792,884.768677 722.704224,886.700256 720.451233,887.144897 
	C718.235657,887.582153 716.558472,886.913025 716.276245,884.103271 
	C715.008118,884.779602 714.145386,885.229004 713.292419,885.696167 
	C703.314880,891.160828 695.642700,886.661011 695.737793,875.337280 
	C695.799133,868.031250 698.258301,861.634827 703.679382,856.631287 
	C709.330322,851.415527 714.179077,850.944336 721.205139,854.831787 
	C723.389771,850.461121 723.125793,845.548096 724.538330,840.632263 
M712.396667,858.985474 
	C705.865784,861.817627 703.857178,867.431213 703.329895,873.889526 
	C703.090027,876.828186 703.460449,879.777405 706.466492,881.192322 
	C709.414978,882.580139 711.879456,880.960022 714.250916,879.233032 
	C718.779236,875.935364 718.247314,870.696655 719.301453,866.123962 
	C720.498657,860.930786 718.801453,859.104919 712.396667,858.985474 
z"/>
<path fill="#1d3557" opacity="1.000000" stroke="none" 
	d="
M690.403076,860.215942 
	C688.868713,867.948547 687.449280,875.269348 685.899536,882.562561 
	C685.540649,884.251160 685.669434,886.469666 683.424133,887.057617 
	C681.193665,887.641602 679.073303,887.442993 678.164246,884.621277 
	C677.071472,885.129150 676.315186,885.419983 675.617676,885.814758 
	C671.521912,888.132507 667.340576,889.527161 662.995300,886.535889 
	C658.769226,883.626770 658.270630,879.167297 658.417236,874.563293 
	C658.630615,867.858521 660.625000,861.828491 665.558411,857.045471 
	C671.424683,851.357910 676.555664,850.803040 684.124939,855.109619 
	C685.769714,853.624451 687.826538,851.797302 690.098572,853.376892 
	C692.517517,855.058533 690.835327,857.603455 690.403076,860.215942 
M682.250061,864.429626 
	C681.384521,859.226746 678.066467,857.375305 673.555115,859.578003 
	C667.822388,862.377075 664.014038,872.907227 666.634644,878.769836 
	C667.650269,881.041931 669.486206,882.113342 671.875793,881.514221 
	C675.543762,880.594727 678.786804,878.916138 679.839478,874.853088 
	C680.669983,871.647827 681.312683,868.393921 682.250061,864.429626 
z"/>
<path fill="#1d3557" opacity="1.000000" stroke="none" 
	d="
M493.209595,755.938477 
	C492.987457,752.884644 493.984528,751.452026 496.966614,750.963074 
	C503.119995,749.954346 506.087128,745.138245 505.032623,739.090576 
	C503.384979,729.641418 501.897644,720.164368 500.356720,710.786194 
	C506.524139,708.816162 507.578583,709.506348 508.342041,715.104248 
	C509.122528,720.826904 510.066589,726.527161 512.052734,732.569946 
	C515.138672,726.478088 518.424866,720.476929 521.239624,714.262207 
	C523.082214,710.193848 525.630798,708.705811 529.843506,710.142456 
	C530.850464,711.580688 529.890625,712.730103 529.298096,713.834290 
	C523.166931,725.260559 517.122681,736.736389 510.781464,748.045471 
	C507.551575,753.805725 503.136322,758.238159 495.652466,757.250122 
	C494.879517,757.148193 494.161469,756.630371 493.209595,755.938477 
z"/>
<path fill="#1d3557" opacity="1.000000" stroke="none" 
	d="
M625.425293,780.754089 
	C633.701233,780.563110 636.774719,782.386230 638.607971,788.274414 
	C641.333679,797.029114 638.439697,801.094666 629.478271,801.105591 
	C626.821106,801.108826 624.162231,801.068787 621.507568,801.154419 
	C620.077026,801.200562 618.294434,800.793762 617.592407,802.567505 
	C616.853516,804.434387 617.519226,806.212891 618.770569,807.651367 
	C621.653625,810.965820 625.348389,810.338379 628.905090,809.306763 
	C630.939514,808.716614 632.816284,807.810852 633.904968,810.424744 
	C635.163452,813.446472 632.605103,814.188782 630.733154,815.013489 
	C619.506287,819.959534 609.531799,813.333862 609.693054,801.110107 
	C609.822266,791.311951 615.270996,784.081726 625.425293,780.754089 
M623.001343,794.770874 
	C624.489258,794.773376 625.985352,794.874451 627.463013,794.752686 
	C629.177490,794.611389 631.422974,795.505066 632.330261,793.352234 
	C633.095520,791.536438 632.087280,789.750183 630.872986,788.359070 
	C629.291931,786.547791 627.284729,786.135620 625.047546,787.203491 
	C622.135315,788.593689 619.699585,790.405212 618.955994,793.735107 
	C619.828857,795.062927 621.100586,794.597046 623.001343,794.770874 
z"/>
<path fill="#1d3557" opacity="1.000000" stroke="none" 
	d="
M554.968567,781.462524 
	C560.582397,785.400208 562.615906,792.569641 560.315125,798.413147 
	C559.469788,800.560120 557.910767,800.998596 556.006836,801.033020 
	C552.180908,801.102051 548.348022,800.983032 544.529175,801.169922 
	C542.590637,801.264709 539.715088,800.206848 539.414062,803.525146 
	C539.148132,806.456116 540.639343,808.607483 543.481689,809.687378 
	C546.147705,810.700378 548.752991,810.239258 551.255737,809.207703 
	C553.180115,808.414673 554.801575,808.144165 555.784119,810.447632 
	C556.817200,812.869324 555.028931,813.707520 553.392456,814.587219 
	C542.569031,820.405457 531.442688,813.653748 531.647827,801.398987 
	C531.877625,787.672852 542.097290,778.716003 554.968567,781.462524 
M546.098572,787.582275 
	C543.529053,789.120422 541.256897,790.869812 540.985229,794.445068 
	C542.293152,794.569458 543.269714,794.722778 544.249023,794.743103 
	C546.411255,794.787964 548.575745,794.804993 550.737610,794.757507 
	C552.223083,794.724915 553.869873,794.808044 554.422852,792.937439 
	C554.885620,791.372131 554.330811,789.940979 553.377625,788.735352 
	C551.596863,786.483093 549.369629,785.908447 546.098572,787.582275 
z"/>
<path fill="#1d3557" opacity="1.000000" stroke="none" 
	d="
M652.591858,857.801819 
	C653.229187,859.751526 653.859436,861.323120 654.099670,862.952332 
	C655.130371,869.943420 653.052734,872.343872 646.118103,872.360046 
	C643.288025,872.366638 640.449646,872.225891 637.630615,872.401978 
	C635.558228,872.531311 632.484680,871.300171 632.357971,875.103760 
	C632.252808,878.263855 633.733826,880.616089 636.889160,881.462830 
	C639.342102,882.121094 641.841064,881.987183 644.211426,880.884827 
	C646.085449,880.013184 647.713379,879.936218 648.809265,882.123657 
	C650.049744,884.599792 648.220825,885.376953 646.601990,886.258240 
	C635.854736,892.109314 624.602112,885.432983 624.684814,873.264038 
	C624.752075,863.366028 630.434875,855.226868 639.061951,852.672546 
	C644.778992,850.979858 648.795593,852.418030 652.591858,857.801819 
M640.504028,866.671021 
	C642.886841,865.998230 646.749695,868.463440 647.359375,864.174927 
	C647.795349,861.108154 645.854004,858.800415 642.493713,858.433899 
	C638.765076,858.027100 634.730835,861.921326 634.213013,866.670349 
	C636.051453,866.670349 637.843750,866.670349 640.504028,866.671021 
z"/>
<path fill="#1d3557" opacity="1.000000" stroke="none" 
	d="
M598.249146,799.142334 
	C597.881958,801.363281 597.476562,803.151489 597.292358,804.962158 
	C597.003784,807.797729 597.745605,810.039062 601.173279,809.967773 
	C603.430725,809.920898 604.762695,810.969055 604.834534,813.097595 
	C604.918152,815.578186 602.696716,815.804810 600.979919,816.146179 
	C593.349915,817.663452 589.056580,813.955994 589.757141,806.092346 
	C590.167664,801.484314 591.280762,796.933899 592.172241,792.376038 
	C592.596069,790.209229 593.210144,788.456482 590.382935,787.035889 
	C587.546326,785.610474 588.842590,782.586792 590.831177,782.129822 
	C594.580933,781.268311 595.465027,778.847717 596.168457,775.840271 
	C596.826111,773.028320 597.406128,769.918823 601.428955,770.833923 
	C605.509155,771.762146 602.816223,774.849731 603.076660,776.969604 
	C603.192444,777.911804 602.888489,778.905457 602.800476,779.658691 
	C604.019348,781.371094 605.679626,780.918091 607.081177,781.228577 
	C608.451965,781.532166 609.803101,781.913940 609.656982,783.658142 
	C609.532654,785.142700 609.216858,787.220764 607.427490,787.052124 
	C598.109314,786.174133 599.912170,793.731750 598.249146,799.142334 
z"/>
<path fill="#1d3557" opacity="1.000000" stroke="none" 
	d="
M578.399292,816.045898 
	C568.213745,816.649841 565.580017,814.015686 566.700500,804.371887 
	C567.216248,799.932739 568.198181,795.543091 569.081055,791.153564 
	C569.433899,789.398926 569.603577,788.234497 567.529358,787.149780 
	C564.520264,785.576111 565.486511,782.596375 567.838135,782.073669 
	C572.041138,781.139404 572.231201,778.091492 573.059265,775.137329 
	C573.769104,772.604858 574.601135,770.125061 577.983032,770.886292 
	C581.624146,771.705750 580.130493,774.481995 579.687439,776.529297 
	C579.034729,779.545898 580.001343,780.934326 583.057068,781.131775 
	C584.689453,781.237183 586.580933,781.307861 586.433411,783.777771 
	C586.290283,786.173767 585.046265,787.549194 582.590149,787.283447 
	C578.222717,786.810669 576.731079,789.205261 576.219482,793.042297 
	C575.650269,797.311584 574.660278,801.526917 574.152344,805.801331 
	C573.848877,808.355042 574.665771,810.649109 577.952637,810.191895 
	C580.023132,809.903809 581.123169,810.546875 581.572876,812.531189 
	C582.103027,814.870422 580.286011,815.264282 578.399292,816.045898 
z"/>
<path fill="#1d3557" opacity="1.000000" stroke="none" 
	d="
M604.197388,841.853149 
	C608.267700,841.423096 609.258911,842.843140 608.447205,846.484375 
	C606.354004,855.874268 604.582825,865.336182 602.701843,874.773071 
	C602.350525,876.535583 601.744324,878.289246 602.280579,880.356323 
	C606.654663,881.407898 611.144958,880.563538 615.571045,880.868103 
	C617.284119,880.986023 619.107178,881.080017 619.082886,883.408020 
	C619.062195,885.392212 618.269653,887.163452 615.974976,887.191650 
	C608.543579,887.283081 601.110229,887.225708 593.207642,887.225708 
	C593.451294,880.929626 595.271179,875.587708 596.247681,870.126465 
	C597.618958,862.456909 599.202576,854.823242 600.829712,847.202942 
	C601.254944,845.211609 601.112915,842.724426 604.197388,841.853149 
z"/>
<path fill="#1d3557" opacity="1.000000" stroke="none" 
	d="
M655.398254,783.723511 
	C657.089294,785.790771 657.402771,783.351318 658.357910,782.981506 
	C659.578552,782.509094 660.608521,781.509766 661.841431,781.111450 
	C663.739990,780.498047 665.910522,780.054749 667.503052,781.584229 
	C668.830017,782.858826 667.570251,784.384888 667.038513,785.715332 
	C666.538391,786.967163 665.380188,787.214355 664.163147,787.278992 
	C657.689758,787.622681 655.013000,792.067627 653.591003,797.495605 
	C652.500916,801.656555 651.750977,805.929565 651.176514,810.196716 
	C650.522705,815.053467 648.100830,816.392090 643.316956,814.613953 
	C643.055664,808.952698 645.183167,803.657104 646.058716,798.188782 
	C646.792175,793.607666 647.689331,789.039307 648.803589,784.536987 
	C649.741821,780.746094 652.438049,780.390747 655.398254,783.723511 
z"/>
<path fill="#1d3557" opacity="1.000000" stroke="none" 
	d="
M507.074158,541.131653 
	C482.307861,558.874573 454.951599,569.256409 425.229462,572.982056 
	C390.690674,577.311279 357.397369,571.962585 326.109863,556.698730 
	C284.929260,536.608582 255.094757,505.303925 237.845261,462.752289 
	C208.097900,389.370514 229.386078,306.784424 290.767914,257.076355 
	C324.548035,229.720581 363.444855,216.618240 406.842712,217.109894 
	C479.552490,217.933640 547.428406,266.152832 570.924133,334.884308 
	C594.743530,404.562531 580.491699,466.672089 530.725769,520.667542 
	C523.749817,528.236328 516.033630,535.188904 507.074158,541.131653 
M336.455780,369.921112 
	C329.525024,355.936218 326.875214,341.034393 329.085358,325.729950 
	C335.362762,282.261658 376.496521,254.083054 419.486877,263.308807 
	C473.085907,274.811218 496.003510,339.430817 461.950195,382.843903 
	C457.852692,388.067566 452.947205,392.423889 447.287079,397.082275 
	C450.682129,398.177368 453.187805,398.975952 455.687378,399.793213 
	C493.727112,412.230591 520.488037,446.633728 522.343567,487.658783 
	C522.583984,492.974152 523.042297,498.279663 523.445496,504.271027 
	C565.404907,459.153046 578.806152,391.760193 552.291504,331.257874 
	C521.740295,261.544739 451.936920,225.164749 381.939178,234.539337 
	C308.865753,244.325851 250.597321,302.667328 241.299774,378.694275 
	C236.381317,418.913025 259.864716,491.930786 283.587982,503.559265 
	C282.328125,449.851593 306.641205,413.863464 358.743073,396.791779 
	C349.120331,389.121185 342.092163,380.551056 336.455780,369.921112 
M312.877899,530.612610 
	C316.564026,532.882751 320.167480,535.301880 323.949158,537.399780 
	C357.991028,556.284241 394.307220,562.186096 432.524353,555.468140 
	C458.544250,550.894226 482.028259,540.188599 502.868866,523.856995 
	C504.665680,522.448975 506.700592,521.235046 506.670715,518.392456 
	C506.536224,505.586212 507.382080,492.737610 505.524719,480.000824 
	C499.851166,441.093842 465.373047,411.353180 425.993744,411.291718 
	C411.170258,411.268585 396.346710,411.294800 381.523193,411.304749 
	C343.296814,411.330353 310.922455,437.031677 302.130646,474.128479 
	C299.594879,484.827911 301.230072,495.727814 300.052734,506.411224 
	C298.823334,517.566772 302.178497,525.365295 312.877899,530.612610 
M458.560547,316.920868 
	C448.983063,292.012634 427.793671,277.609619 401.463715,278.110626 
	C366.377197,278.778259 339.368744,311.607391 345.487213,346.150879 
	C351.645416,380.918701 384.707275,401.613190 419.808105,392.670715 
	C450.900940,384.749359 469.371460,349.221619 458.560547,316.920868 
z"/>
</svg>